#!OML:ASF F:\VICON\USERDATA\INSTALL\rory3\rory3.ASF
:FULLY-SPECIFIED
:DEGREES
419
root -0.763198 26.837 -0.686517 -164.737 -1.68101 178.389
lowerback 6.36582 1.91334 -3.9598
upperback 0.707817 2.20026 -0.516501
thorax -2.96789 1.1154 1.49258
lowerneck -16.3162 2.55941 -9.42192
upperneck 37.4785 2.54905 2.59288
head 15.8357 -1.04122 2.92015
rclavicle 1.66979e-014 4.22417e-015
rhumerus -28.2907 0.384336 -83.3868
rradius 37.7946
rwrist 18.375
rhand -18.4121 2.513
rfingers 7.12502
rthumb 7.87262 -27.3204
lclavicle 1.66979e-014 4.22417e-015
lhumerus -28.6558 6.87412 82.7871
lradius 34.9681
lwrist -0.546262
lhand -17.3379 24.9321
lfingers 7.12502
lthumb 8.90925 54.724
rfemur -7.86681 2.03132 21.6865
rtibia 15.2404
rfoot 14.6976 -9.83684
rtoes 17.7893
lfemur -57.1524 1.51804 -30.3014
ltibia 65.4838
lfoot -20.1752 3.41037
ltoes -8.87684
420
root -0.768783 26.929 -0.743531 -164.841 -1.67169 178.55
lowerback 6.51596 1.92153 -3.8896
upperback 0.67915 2.21045 -0.473908
thorax -3.08111 1.12239 1.49094
lowerneck -16.3782 2.5883 -9.54733
upperneck 37.4736 2.57 2.82646
head 15.8356 -1.01343 3.04907
rclavicle -1.14053e-014 4.96962e-015
rhumerus -28.3299 0.755623 -83.4926
rradius 37.9812
rwrist 17.9648
rhand -18.6511 2.57267
rfingers 7.12502
rthumb 7.64195 -27.2693
lclavicle -1.14053e-014 4.96962e-015
lhumerus -28.7393 6.38545 82.9238
lradius 34.9963
lwrist -0.492693
lhand -17.519 24.0129
lfingers 7.12502
lthumb 8.73456 53.8121
rfemur -8.5322 2.23075 21.6393
rtibia 16.5657
rfoot 15.7398 -9.64291
rtoes 20.002
lfemur -56.1869 1.62486 -30.0712
ltibia 64.3726
lfoot -19.9495 3.32164
ltoes -8.86662
421
root -0.775998 27.0224 -0.799222 -164.829 -1.70425 178.603
lowerback 6.57786 1.89968 -3.90827
upperback 0.57433 2.1787 -0.455472
thorax -3.22389 1.11213 1.51933
lowerneck -16.5154 2.6488 -9.49636
upperneck 37.6057 2.64121 2.8508
head 15.9284 -0.985535 3.06733
rclavicle -1.39149e-015 3.52843e-015
rhumerus -28.5153 0.727331 -83.5397
rradius 38.3239
rwrist 17.9807
rhand -18.8652 2.71874
rfingers 7.12502
rthumb 7.43531 -27.1306
lclavicle -1.39149e-015 3.52843e-015
lhumerus -28.8944 6.04248 83.0131
lradius 34.987
lwrist -0.562947
lhand -17.7486 23.343
lfingers 7.12502
lthumb 8.51299 53.1514
rfemur -9.28046 2.26241 21.4787
rtibia 17.7985
rfoot 16.6883 -9.29226
rtoes 18.9168
lfemur -55.3463 1.66091 -29.9666
ltibia 63.2631
lfoot -19.7111 3.17528
ltoes -8.42091
422
root -0.781736 27.1104 -0.856631 -164.781 -1.79199 178.748
lowerback 6.47849 1.88078 -3.83991
upperback 0.510243 2.16805 -0.40304
thorax -3.23335 1.10926 1.53802
lowerneck -16.6015 2.64645 -9.58141
upperneck 37.5965 2.65528 2.95717
head 15.9383 -0.972542 3.13344
rclavicle -1.61513e-015 5.56597e-015
rhumerus -28.5891 0.67007 -83.5117
rradius 38.6046
rwrist 18.1825
rhand -18.9596 2.79381
rfingers 7.12502
rthumb 7.34417 -27.0587
lclavicle -1.61513e-015 5.56597e-015
lhumerus -29.037 5.63068 83.1223
lradius 35.0707
lwrist -0.470641
lhand -18.1634 22.6815
lfingers 7.12502
lthumb 8.11262 52.5058
rfemur -9.97812 2.30726 21.4349
rtibia 18.9118
rfoot 17.2757 -9.11081
rtoes 18.7779
lfemur -54.5388 1.64895 -29.7437
ltibia 62.1615
lfoot -19.4526 3.02915
ltoes -7.8792
423
root -0.788291 27.1981 -0.920483 -164.799 -1.94882 179.041
lowerback 6.2626 1.81332 -3.62738
upperback 0.520284 2.11158 -0.287956
thorax -3.09521 1.07883 1.55004
lowerneck -16.5891 2.68948 -9.60387
upperneck 37.4783 2.7647 2.93705
head 15.8662 -0.919551 3.14561
rclavicle -1.24613e-014 7.30534e-015
rhumerus -28.4263 1.05644 -83.5661
rradius 38.6345
rwrist 18.067
rhand -18.9755 2.59194
rfingers 7.12502
rthumb 7.32882 -27.2611
lclavicle -1.24613e-014 7.30534e-015
lhumerus -29.0535 5.50085 83.1599
lradius 35.071
lwrist -0.637539
lhand -18.139 22.6251
lfingers 7.12502
lthumb 8.13621 52.4485
rfemur -10.545 2.27888 21.5658
rtibia 19.9599
rfoot 17.6649 -9.11322
rtoes 18.2724
lfemur -53.6412 1.66319 -29.3678
ltibia 61.0806
lfoot -19.2739 2.86918
ltoes -7.6771
424
root -0.798311 27.2855 -0.984493 -164.854 -2.15893 179.28
lowerback 6.08615 1.73525 -3.37143
upperback 0.503096 2.03904 -0.207883
thorax -3.00385 1.04068 1.50091
lowerneck -16.449 2.73625 -9.41404
upperneck 37.3724 2.85267 2.6894
head 15.7837 -0.884789 3.01436
rclavicle 2.74199e-014 -1.68967e-015
rhumerus -28.36 1.35308 -83.6429
rradius 38.7549
rwrist 17.7469
rhand -18.974 2.34401
rfingers 7.12502
rthumb 7.33022 -27.509
lclavicle 2.74199e-014 -1.68967e-015
lhumerus -29.0745 5.47222 83.1368
lradius 35.0427
lwrist -1.17768
lhand -17.5165 23.3878
lfingers 7.12502
lthumb 8.73695 53.187
rfemur -11.1175 2.09322 21.6335
rtibia 21.0883
rfoot 17.7152 -9.09692
rtoes 17.7433
lfemur -52.6732 1.5968 -29.0448
ltibia 59.9623
lfoot -19.0705 2.75007
ltoes -7.61841
